#!OML:ASF H:\ManfredObstacles\Project 1\Capture day 1\Session 1\Male.ASF
:FULLY-SPECIFIED
:DEGREES
451
root 5.0328 16.5778 -6.29653 -171.547 -5.08058 -173.088
lowerback -4.0032 -3.29778 3.75765
upperback 2.52712 -4.7825 1.62966
thorax 4.69603 -2.31032 -0.789825
lowerneck 0.903277 -4.34181 -6.10856
upperneck -14.0777 -3.45154 14.8573
head -3.85982 -1.71319 5.71261
rclavicle 1.78906e-014 -1.86858e-014
rhumerus -40.0062 -29.6808 -72.0109
rradius 25.8585
rwrist 35.0762
rhand 1.81563 -4.50581
rfingers 7.12502
rthumb 27.3282 -32.5449
lclavicle 1.78906e-014 -1.86858e-014
lhumerus -24.3383 2.47099 86.8074
lradius 22.438
lwrist -22.0517
lhand -11.7247 8.23444
lfingers 7.12502
lthumb 14.3223 37.7205
rfemur -22.1152 -5.54754 31.3468
rtibia 23.6827
rfoot -14.2092 11.6682
rtoes 26.4306
lfemur -0.348919 -3.6952 -9.83938
ltibia 34.0132
lfoot 15.4353 -8.63343
ltoes 12.2617
452
root 5.07857 16.5897 -6.48048 -171.86 -4.45942 -173.253
lowerback -3.56247 -3.18208 3.63521
upperback 2.55041 -4.58625 1.44476
thorax 4.47063 -2.21703 -0.870494
lowerneck 0.980969 -4.30884 -6.17303
upperneck -14.0597 -3.45626 14.6768
head -3.87127 -1.71499 5.66815
rclavicle 3.30976e-014 -1.35174e-014
rhumerus -39.326 -29.1835 -72.8064
rradius 25.9261
rwrist 34.9308
rhand 1.86888 -4.62585
rfingers 7.12502
rthumb 27.3792 -32.6569
lclavicle 3.30976e-014 -1.35174e-014
lhumerus -24.8463 3.96971 85.9227
lradius 22.6493
lwrist -22.2469
lhand -11.9423 8.15483
lfingers 7.12502
lthumb 14.1126 37.6556
rfemur -20.809 -5.4063 31.2264
rtibia 23.3466
rfoot -14.5341 12.26
rtoes 27.364
lfemur -2.54047 -2.94999 -9.92885
ltibia 39.1235
lfoot 16.7578 -6.9696
ltoes 9.55932
453
root 5.11943 16.6066 -6.66389 -172.13 -3.86207 -173.458
lowerback -3.29885 -3.05255 3.47829
upperback 2.66555 -4.3853 1.24215
thorax 4.44353 -2.11783 -0.966406
lowerneck 1.1231 -4.24168 -6.13323
upperneck -14.2942 -3.36539 14.4584
head -3.98295 -1.67084 5.60037
rclavicle -3.28989e-014 -2.38542e-015
rhumerus -38.4241 -28.5998 -73.7918
rradius 25.9679
rwrist 34.7605
rhand 1.9357 -4.85336
rfingers 7.12502
rthumb 27.4431 -32.8743
lclavicle -3.28989e-014 -2.38542e-015
lhumerus -25.1415 5.94372 84.9172
lradius 22.8688
lwrist -22.9713
lhand -12.2042 8.17346
lfingers 7.12502
lthumb 13.8602 37.6916
rfemur -19.6103 -5.67451 31.1767
rtibia 22.9967
rfoot -14.8766 12.8904
rtoes 27.0025
lfemur -4.97854 -2.55375 -10.1123
ltibia 44.2266
lfoot 16.9952 -7.47192
ltoes -0.752526
454
root 5.15999 16.6189 -6.83821 -172.343 -3.49149 -173.732
lowerback -3.01505 -2.9626 3.20153
upperback 2.73816 -4.23046 1.06427
thorax 4.36921 -2.04687 -0.971675
lowerneck 1.17545 -4.19595 -5.95299
upperneck -14.4812 -3.3116 14.1287
head -4.06768 -1.64205 5.47019
rclavicle -1.09332e-015 1.35174e-014
rhumerus -37.604 -28.0256 -74.6989
rradius 26.046
rwrist 34.7351
rhand 1.92115 -4.83659
rfingers 7.12502
rthumb 27.4292 -32.8597
lclavicle -1.09332e-015 1.35174e-014
lhumerus -25.3236 7.22484 84.1582
lradius 22.9351
lwrist -23.2363
lhand -12.3326 8.46707
lfingers 7.12502
lthumb 13.7365 37.9937
rfemur -18.5515 -6.08601 31.0618
rtibia 22.7282
rfoot -15.3333 13.3626
rtoes 26.7012
lfemur -7.58513 -2.49015 -10.3588
ltibia 49.109
lfoot 16.6446 -7.10688
ltoes -4.06494
455
root 5.1954 16.618 -7.00725 -172.513 -3.20194 -174.014
lowerback -2.77162 -2.81334 2.95785
upperback 2.77751 -4.0013 0.90215
thorax 4.28435 -1.93852 -0.976685
lowerneck 1.08996 -4.22572 -5.91514
upperneck -14.4697 -3.38575 13.8908
head -4.04968 -1.66836 5.38752
rclavicle -2.04748e-014 9.54166e-015
rhumerus -36.9246 -27.4618 -75.4616
rradius 26.1772
rwrist 34.7205
rhand 1.67105 -4.38831
rfingers 7.12502
rthumb 27.19 -32.4491
lclavicle -2.04748e-014 9.54166e-015
lhumerus -25.4165 7.91753 83.6459
lradius 22.8058
lwrist -23.2645
lhand -12.0494 8.88726
lfingers 7.12502
lthumb 14.0094 38.3952
rfemur -17.5831 -6.34048 30.8481
rtibia 22.5566
rfoot -15.7533 13.7667
rtoes 26.0118
lfemur -10.141 -2.34142 -10.6908
ltibia 53.5686
lfoot 15.4208 -6.76457
ltoes -4.48416
456
root 5.22802 16.6092 -7.1721 -172.519 -2.9405 -174.481
lowerback -2.84197 -2.62984 2.48818
upperback 2.8965 -3.73174 0.747589
thorax 4.47564 -1.81237 -0.866798
lowerneck 0.98713 -4.27139 -6.09976
upperneck -14.5406 -3.45667 13.8122
head -4.04325 -1.68552 5.39504
rclavicle -1.19271e-014 1.11319e-014
rhumerus -36.0077 -26.5686 -76.3799
rradius 26.5072
rwrist 34.2383
rhand 1.39034 -3.9643
rfingers 7.12502
rthumb 26.9214 -32.0668
lclavicle -1.19271e-014 1.11319e-014
lhumerus -25.2133 8.93461 83.2043
lradius 22.53
lwrist -23.7515
lhand -11.9465 9.06615
lfingers 7.12502
lthumb 14.1085 38.5672
rfemur -16.8803 -6.51117 30.4319
rtibia 22.5504
rfoot -16.2296 14.0647
rtoes 25.5464
lfemur -12.8056 -2.14165 -11.3421
ltibia 57.4408
lfoot 13.5973 -6.29778
ltoes -3.59848
457
root 5.26199 16.6106 -7.3342 -172.288 -2.70465 -175.13
lowerback -3.19682 -2.47586 1.71452
upperback 2.96266 -3.4856 0.599789
thorax 4.78838 -1.70596 -0.593443
lowerneck 1.02915 -4.25241 -5.9722
upperneck -14.6517 -3.45994 13.4742
head -4.09675 -1.68202 5.2705
rclavicle 2.88238e-015 9.54166e-015
rhumerus -35.0856 -25.4528 -77.3158
rradius 26.973
rwrist 33.6266
rhand 1.1513 -3.92446
rfingers 7.12502
rthumb 26.6927 -32.0621
lclavicle 2.88238e-015 9.54166e-015
lhumerus -25.0646 10.146 82.8
lradius 22.3548
lwrist -24.2941
lhand -12.1749 9.00254
lfingers 7.12502
lthumb 13.8884 38.5188
rfemur -16.4697 -6.5523 29.8435
rtibia 22.6411
rfoot -16.8662 14.1915
rtoes 24.9918
lfemur -15.8168 -2.13559 -12.1999
ltibia 60.6321
lfoot 11.7851 -4.5629
ltoes 1.9249
458
root 5.29404 16.6217 -7.4981 -172.245 -2.41704 -175.833
lowerback -3.27554 -2.30469 0.910963
upperback 2.96253 -3.19931 0.380694
thorax 4.86851 -1.58442 -0.355438
lowerneck 1.3119 -4.16862 -5.20404
upperneck -14.7238 -3.41683 12.7047
head -4.21342 -1.68289 4.90516
rclavicle -5.1684e-014 7.15625e-015
rhumerus -34.3619 -24.5167 -78.1128
rradius 27.2115
rwrist 33.2077
rhand 0.998896 -4.11385
rfingers 7.12502
rthumb 26.5468 -32.2736
lclavicle -5.1684e-014 7.15625e-015
lhumerus -25.1666 10.8341 82.4222
lradius 22.2509
lwrist -24.4144
lhand -12.4487 8.91539
lfingers 7.12502
lthumb 13.6246 38.4495
rfemur -15.8352 -6.48787 29.1338
rtibia 22.6715
rfoot -17.5186 14.2683
rtoes 24.0512
lfemur -18.5228 -2.22036 -13.1114
ltibia 63.0301
lfoot 9.2246 -4.18757
ltoes -0.124091
459
root 5.32503 16.6357 -7.66459 -172.347 -2.13074 -176.622
lowerback -3.16991 -2.13986 0.049393
upperback 2.9413 -2.91678 0.10373
thorax 4.81682 -1.46838 -0.13509
lowerneck 1.35031 -4.03087 -5.50238
upperneck -14.3984 -3.27945 12.8807
head -4.12334 -1.61488 5.0005
rclavicle -1.2921e-015 1.27222e-014
rhumerus -33.6547 -23.7747 -78.8107
rradius 27.1892
rwrist 33.0336
rhand 1.07766 -4.19043
rfingers 7.12502
rthumb 26.6222 -32.3388
lclavicle -1.2921e-015 1.27222e-014
lhumerus -25.2737 11.3342 81.9745
lradius 21.9705
lwrist -24.5889
lhand -12.5138 8.85841
lfingers 7.12502
lthumb 13.5618 38.3967
rfemur -15.0065 -6.34227 28.2865
rtibia 22.6521
rfoot -18.1432 14.281
rtoes 23.3512
lfemur -20.886 -2.43767 -14.1148
ltibia 64.5814
lfoot 7.30194 -2.9541
ltoes 3.55343
